#!OML:ASF E:\Steps\Project 1\Capture day 1\Session 2\Subject.ASF
:FULLY-SPECIFIED
:DEGREES
135
root 9.25845 16.3002 19.9123 -152.359 -3.27469 -179.835
lowerback -31.767 -1.39123 -4.87184
upperback -3.53009 -1.31067 0.00679037
thorax 12.6156 -1.32218 2.00946
lowerneck -1.66334 -3.18705 10.4188
upperneck -0.0584081 -4.79864 -14.9821
head -0.360563 -2.58265 -6.23747
rclavicle -3.926e-015 -1.27222e-014
rhumerus -34.2371 -22.2554 -79.0088
rradius 23.8491
rwrist 8.03352
rhand -7.90519 -50.2225
rfingers 7.12502
rthumb 18.0001 -79.4096
lclavicle -3.926e-015 -1.27222e-014
lhumerus -30.5194 11.9478 79.5758
lradius 15.0655
lwrist -14.8803
lhand -21.3011 -12.8757
lfingers 7.12502
lthumb 5.08367 17.0433
rfemur -22.7592 8.2588 18.2177
rtibia 5.54911
rfoot -19.0388 -9.76692
rtoes -27.2969
lfemur -24.4307 -10.1569 -16.1108
ltibia 7.9032
lfoot -8.27745 4.6268
ltoes -40.0339
136
root 9.25849 16.3011 19.9121 -152.389 -3.31008 -179.828
lowerback -31.7141 -1.37567 -4.86455
upperback -3.58792 -1.30353 -0.0214042
thorax 12.5257 -1.31992 1.97936
lowerneck -1.60203 -3.19968 10.5704
upperneck -0.0805903 -4.82245 -15.1475
head -0.388105 -2.59435 -6.31345
rclavicle -5.51627e-015 -1.35174e-014
rhumerus -34.3922 -22.2355 -79.0152
rradius 23.9572
rwrist 7.99085
rhand -7.78542 -50.2518
rfingers 7.12502
rthumb 18.1153 -79.4282
lclavicle -5.51627e-015 -1.35174e-014
lhumerus -30.5477 11.6828 79.6752
lradius 15.0562
lwrist -14.7298
lhand -21.5885 -12.9935
lfingers 7.12502
lthumb 4.80614 16.932
rfemur -22.5878 8.43874 18.1771
rtibia 5.27837
rfoot -19.0097 -9.82948
rtoes -26.497
lfemur -24.426 -10.028 -16.1381
ltibia 7.95003
lfoot -8.26124 4.48224
ltoes -40.3089
137
root 9.25898 16.3013 19.9107 -152.419 -3.3346 -179.813
lowerback -31.6972 -1.38683 -4.85198
upperback -3.57879 -1.31998 -0.0213226
thorax 12.5302 -1.32574 1.96674
lowerneck -1.63654 -3.19197 10.7074
upperneck -0.121767 -4.83284 -15.3424
head -0.403511 -2.60451 -6.39862
rclavicle 4.07509e-015 1.19271e-015
rhumerus -34.2649 -22.1729 -79.1136
rradius 23.9188
rwrist 7.80763
rhand -7.9334 -50.7743
rfingers 7.12502
rthumb 17.9729 -79.9639
lclavicle 4.07509e-015 1.19271e-015
lhumerus -30.4707 11.7302 79.7007
lradius 15.0478
lwrist -14.9325
lhand -21.6957 -12.926
lfingers 7.12502
lthumb 4.7026 17.0018
rfemur -22.6474 8.30077 18.2553
rtibia 5.47332
rfoot -19.0409 -9.76373
rtoes -27.2601
lfemur -24.3641 -10.0805 -16.1056
ltibia 7.87829
lfoot -8.27585 4.49431
ltoes -40.4063
138
root 9.25965 16.3003 19.9099 -152.365 -3.31734 -179.806
lowerback -31.7671 -1.38266 -4.84992
upperback -3.5729 -1.3131 -0.0309758
thorax 12.5654 -1.32427 1.95589
lowerneck -1.71865 -3.19087 10.8168
upperneck -0.114751 -4.84725 -15.4825
head -0.395654 -2.61791 -6.46331
rclavicle -3.42904e-015 -1.31198e-014
rhumerus -34.0795 -22.109 -79.2352
rradius 23.8208
rwrist 7.69156
rhand -8.16542 -51.2659
rfingers 7.12502
rthumb 17.7497 -80.4758
lclavicle -3.42904e-015 -1.31198e-014
lhumerus -30.4129 11.6587 79.7795
lradius 15.1669
lwrist -15.0045
lhand -21.6939 -12.6861
lfingers 7.12502
lthumb 4.7043 17.2417
rfemur -22.8396 8.13309 18.3044
rtibia 5.71448
rfoot -19.0674 -9.69081
rtoes -27.9941
lfemur -24.4097 -10.1451 -16.0604
ltibia 7.84616
lfoot -8.36146 4.69145
ltoes -40.2443
139
root 9.25904 16.2994 19.9115 -152.272 -3.28832 -179.783
lowerback -31.8466 -1.34763 -4.81588
upperback -3.6138 -1.28771 -0.049334
thorax 12.5494 -1.31578 1.92542
lowerneck -1.70752 -3.2119 10.95
upperneck -0.126495 -4.88687 -15.6435
head -0.413527 -2.64007 -6.53606
rclavicle 2.5345e-015 1.11319e-014
rhumerus -34.0519 -21.6639 -79.5279
rradius 24.0158
rwrist 7.04013
rhand -8.67332 -52.198
rfingers 7.12502
rthumb 17.2609 -81.4515
lclavicle 2.5345e-015 1.11319e-014
lhumerus -30.4147 11.258 79.9762
lradius 15.3336
lwrist -14.7451
lhand -21.8517 -12.6606
lfingers 7.12502
lthumb 4.55201 17.2705
rfemur -22.9926 8.15717 18.2773
rtibia 5.76035
rfoot -19.1433 -9.58911
rtoes -27.321
lfemur -24.5248 -10.2446 -15.9873
ltibia 7.85139
lfoot -8.32162 4.89353
ltoes -40.2877
140
root 9.25808 16.2989 19.9134 -152.212 -3.26345 -179.771
lowerback -31.8881 -1.32922 -4.79157
upperback -3.64469 -1.2792 -0.0586828
thorax 12.5304 -1.31385 1.90435
lowerneck -1.69998 -3.22266 11.0568
upperneck -0.141911 -4.91424 -15.8052
head -0.429592 -2.6568 -6.60487
rclavicle -3.47873e-015 -1.63003e-014
rhumerus -34.0326 -21.2893 -79.7567
rradius 24.1943
rwrist 6.48105
rhand -9.0875 -52.9879
rfingers 7.12502
rthumb 16.8622 -82.2758
lclavicle -3.47873e-015 -1.63003e-014
lhumerus -30.3984 10.8225 80.2299
lradius 15.5393
lwrist -14.0539
lhand -21.9768 -12.9369
lfingers 7.12502
lthumb 4.43119 16.9968
rfemur -23.1063 8.16008 18.253
rtibia 5.81096
rfoot -19.2369 -9.4701
rtoes -26.5552
lfemur -24.5884 -10.3321 -15.9438
ltibia 7.82497
lfoot -8.25715 4.99554
ltoes -40.6366
141
root 9.25915 16.2985 19.9124 -152.208 -3.27637 -179.807
lowerback -31.9014 -1.35102 -4.84855
upperback -3.63568 -1.2846 -0.067627
thorax 12.5464 -1.31879 1.92278
lowerneck -1.75517 -3.22602 11.1696
upperneck -0.15438 -4.93703 -15.9665
head -0.433769 -2.67387 -6.67627
rclavicle 5.06901e-015 1.74931e-014
rhumerus -34.0048 -21.7071 -79.5205
rradius 24.0065
rwrist 7.21107
rhand -8.48325 -51.8958
rfingers 7.12502
rthumb 17.4438 -81.1331
lclavicle 5.06901e-015 1.74931e-014
lhumerus -30.3497 10.2941 80.5569
lradius 15.7882
lwrist -13.0341
lhand -21.9544 -12.9204
lfingers 7.12502
lthumb 4.45275 17.0128
rfemur -23.1023 8.06762 18.2479
rtibia 5.82773
rfoot -19.2696 -9.46079
rtoes -26.606
lfemur -24.5871 -10.2689 -15.9972
ltibia 7.81758
lfoot -8.30418 4.83184
ltoes -40.1893
142
root 9.26038 16.2985 19.911 -152.235 -3.29681 -179.831
lowerback -31.8852 -1.36866 -4.89254
upperback -3.62404 -1.28855 -0.0736104
thorax 12.5531 -1.3214 1.93887
lowerneck -1.78699 -3.22883 11.2996
upperneck -0.209043 -4.96182 -16.1276
head -0.454715 -2.69021 -6.74966
rclavicle 2.23633e-015 1.59028e-014
rhumerus -34.0058 -21.9671 -79.3729
rradius 23.9614
rwrist 7.67965
rhand -7.92524 -51.0095
rfingers 7.12502
rthumb 17.9808 -80.1983
lclavicle 2.23633e-015 1.59028e-014
lhumerus -30.296 9.94051 80.7835
lradius 15.9497
lwrist -12.5231
lhand -21.9607 -12.735
lfingers 7.12502
lthumb 4.44676 17.1983
rfemur -23.0488 7.93375 18.27
rtibia 5.81568
rfoot -19.2062 -9.41141
rtoes -26.9914
lfemur -24.5562 -10.1999 -16.0398
ltibia 7.83002
lfoot -8.34348 4.6007
ltoes -39.6924
143
root 9.2601 16.2987 19.9107 -152.262 -3.29486 -179.808
lowerback -31.8675 -1.37056 -4.86918
upperback -3.61337 -1.29718 -0.067622
thorax 12.5587 -1.32316 1.92993
lowerneck -1.88717 -3.21641 11.4412
upperneck -0.189959 -4.965 -16.3094
head -0.440783 -2.70017 -6.83461
rclavicle -1.49089e-016 -1.31198e-014
rhumerus -33.9447 -21.751 -79.5124
rradius 24.1042
rwrist 7.42509
rhand -7.97103 -51.2854
rfingers 7.12502
rthumb 17.9367 -80.4783
lclavicle -1.49089e-016 -1.31198e-014
lhumerus -30.2311 9.83376 80.8793
lradius 16.0573
lwrist -12.4842
lhand -21.9994 -12.8248
lfingers 7.12502
lthumb 4.40938 17.1093
rfemur -23.0145 7.70321 18.3445
rtibia 5.81216
rfoot -19.0969 -9.14691
rtoes -26.9041
lfemur -24.5233 -10.225 -16.0161
ltibia 7.83506
lfoot -8.32069 4.6337
ltoes -40.1758
144
root 9.25948 16.2985 19.9102 -152.274 -3.29361 -179.795
lowerback -31.8747 -1.3579 -4.84933
upperback -3.60769 -1.28416 -0.0856127
thorax 12.5667 -1.31605 1.90483
lowerneck -1.9336 -3.2171 11.6248
upperneck -0.213865 -4.98528 -16.4898
head -0.45178 -2.71504 -6.92447
rclavicle -3.8266e-015 1.23246e-014
rhumerus -33.9084 -21.5717 -79.6536
rradius 24.2185
rwrist 7.21644
rhand -8.05137 -51.3354
rfingers 7.12502
rthumb 17.8594 -80.5354
lclavicle -3.8266e-015 1.23246e-014
lhumerus -30.1895 9.49263 81.0154
lradius 16.2838
lwrist -12.3481
lhand -21.9035 -12.8064
lfingers 7.12502
lthumb 4.50199 17.1257
rfemur -22.9949 7.54214 18.3914
rtibia 5.80949
rfoot -19.1016 -8.9484
rtoes -26.4816
lfemur -24.5102 -10.2616 -16.0009
ltibia 7.84339
lfoot -8.33246 4.79738
ltoes -40.5618
